<?xml version="1.0" standalone="no"?>
<!DOCTYPE svg PUBLIC "-//W3C//DTD SVG 20010904//EN"
 "http://www.w3.org/TR/2001/REC-SVG-20010904/DTD/svg10.dtd">
<svg version="1.0" xmlns="http://www.w3.org/2000/svg"
 width="500.000000pt" height="500.000000pt" viewBox="0 0 500.000000 500.000000"
 preserveAspectRatio="xMidYMid meet">
<metadata>
Created by potrace 1.14, written by Peter Selinger 2001-2017
</metadata>
<g transform="translate(0.000000,500.000000) scale(0.100000,-0.100000)"
fill="#000000" stroke="none">
<path d="M2408 4396 c-1 -2 -39 -6 -83 -10 -44 -3 -93 -8 -110 -11 -60 -11
-131 -24 -155 -30 -14 -3 -36 -8 -49 -11 -13 -3 -32 -9 -43 -15 -10 -5 -18 -7
-18 -5 0 11 -182 -59 -290 -112 -63 -31 -118 -55 -122 -54 -5 1 -8 -3 -8 -8 0
-6 -12 -17 -27 -23 -44 -20 -93 -51 -93 -59 0 -5 -5 -8 -11 -8 -6 0 -16 -6
-24 -12 -7 -7 -25 -22 -39 -32 -15 -11 -39 -30 -54 -43 -15 -13 -33 -21 -40
-18 -7 3 -11 1 -8 -3 3 -5 -43 -57 -102 -118 -108 -110 -119 -123 -192 -224
-22 -30 -43 -60 -47 -66 -4 -5 -13 -19 -19 -30 -6 -10 -19 -35 -30 -54 -10
-19 -25 -41 -32 -48 -6 -7 -12 -22 -12 -33 0 -11 -7 -22 -15 -25 -8 -4 -15
-13 -15 -21 0 -9 -8 -30 -19 -47 -10 -17 -26 -56 -35 -86 -10 -30 -21 -64 -26
-75 -14 -33 -48 -147 -59 -200 -6 -27 -14 -63 -17 -80 -35 -155 -37 -559 -4
-674 5 -17 9 -35 9 -39 6 -65 55 -236 96 -337 34 -84 119 -255 127 -255 4 0 8
-5 8 -11 0 -10 56 -102 82 -134 5 -5 27 -35 50 -65 59 -77 221 -250 234 -250
3 0 17 -11 32 -25 41 -39 52 -47 128 -103 39 -29 77 -52 83 -52 6 0 11 -3 11
-7 0 -5 19 -17 43 -28 23 -11 48 -26 55 -32 7 -7 20 -13 28 -13 8 0 14 -4 14
-10 0 -5 5 -10 12 -10 6 0 36 -12 66 -26 57 -27 332 -124 367 -129 11 -2 58
-10 105 -19 68 -13 142 -15 365 -13 154 2 292 6 308 10 15 4 37 9 50 11 12 2
64 16 115 30 51 15 98 24 104 20 6 -4 8 -3 5 3 -3 5 11 15 31 22 38 12 165 67
192 82 8 5 37 20 64 34 53 28 168 96 176 105 3 3 30 23 60 45 30 22 59 45 63
52 4 7 12 13 17 13 16 0 270 261 270 278 0 4 14 23 30 42 43 50 50 58 50 65 0
3 15 27 33 53 18 26 43 68 55 94 13 26 27 50 33 53 5 4 9 13 9 22 0 9 6 24 14
32 7 9 23 46 35 83 12 37 26 68 31 70 10 3 59 166 65 213 2 17 6 48 10 70 4
22 8 45 9 50 1 6 5 15 9 21 20 33 35 342 23 464 -7 60 -20 175 -21 180 -1 3
-5 23 -9 45 -11 57 -46 197 -53 215 -3 8 -8 24 -10 34 -2 11 -8 25 -14 32 -5
6 -9 16 -8 20 4 17 -131 300 -150 314 -3 3 -12 16 -19 30 -19 37 -91 134 -167
225 -65 78 -267 275 -283 275 -4 0 -24 16 -44 36 -21 19 -38 33 -38 29 0 -3
-10 3 -22 14 -12 11 -53 42 -92 68 -39 26 -72 51 -74 55 -2 4 -9 8 -16 8 -7 0
-17 5 -23 11 -14 14 -286 109 -323 113 -14 2 -47 8 -73 15 -26 6 -65 13 -85
16 -20 3 -53 8 -72 11 -37 6 -376 15 -382 10z m302 -290 c68 -4 96 -7 197 -20
18 -3 36 -7 41 -10 5 -3 27 -8 48 -10 21 -3 64 -15 94 -26 30 -11 64 -20 75
-20 11 0 29 -6 40 -13 11 -8 52 -24 90 -37 39 -13 77 -29 85 -36 8 -6 26 -15
40 -19 14 -4 27 -10 30 -14 3 -3 21 -14 40 -24 64 -34 95 -52 100 -58 3 -3 28
-21 57 -40 92 -62 208 -168 293 -268 25 -29 51 -59 58 -66 6 -8 12 -16 12 -20
0 -3 6 -13 13 -21 6 -8 17 -20 22 -27 28 -35 105 -188 105 -208 0 -8 4 -19 9
-24 7 -8 31 -70 36 -95 1 -3 7 -25 14 -50 7 -25 15 -54 18 -65 8 -38 11 -50
13 -50 2 0 8 -33 15 -84 3 -25 8 -48 11 -53 6 -10 14 -150 14 -261 0 -108 -7
-188 -26 -297 -8 -47 -17 -94 -18 -105 -2 -11 -9 -33 -16 -50 -6 -16 -16 -52
-21 -79 -5 -27 -23 -78 -39 -114 -17 -35 -33 -77 -37 -93 -3 -16 -9 -29 -14
-29 -4 0 -11 -10 -14 -22 -4 -13 -20 -44 -36 -71 -16 -26 -29 -52 -29 -57 0
-5 -11 -21 -25 -36 -14 -15 -25 -33 -25 -40 0 -8 -4 -14 -10 -14 -5 0 -10 -7
-10 -15 0 -8 -4 -15 -10 -15 -5 0 -10 -5 -10 -11 0 -6 -6 -16 -12 -23 -7 -7
-24 -28 -38 -46 -40 -54 -110 -128 -196 -211 -65 -61 -167 -141 -229 -179 -22
-13 -42 -27 -45 -31 -7 -9 -239 -130 -243 -127 -1 2 -21 -4 -42 -14 -37 -15
-72 -29 -85 -33 -61 -19 -109 -33 -140 -39 -181 -41 -253 -50 -425 -49 -177 0
-327 16 -413 44 -18 6 -43 12 -55 13 -34 4 -241 78 -245 88 -2 4 -9 8 -16 8
-7 0 -48 19 -92 42 -43 22 -91 47 -106 55 -16 8 -28 19 -28 24 0 5 -9 9 -20 9
-11 0 -20 3 -20 8 0 4 -18 18 -40 32 -22 14 -40 28 -40 32 0 5 -5 8 -10 8 -6
0 -21 9 -33 21 -12 11 -35 30 -51 42 -24 19 -96 91 -198 199 -16 16 -28 34
-28 39 0 5 -3 9 -7 9 -5 0 -19 16 -32 35 -13 19 -32 44 -42 56 -11 12 -19 28
-19 35 0 7 -3 14 -7 16 -10 4 -65 88 -58 88 2 0 -11 27 -30 59 -19 33 -35 63
-35 68 0 4 -9 26 -21 47 -18 35 -41 96 -69 189 -5 15 -5 27 0 27 7 0 13 -14
25 -55 2 -5 20 -46 41 -90 21 -44 38 -84 38 -88 1 -4 6 -11 12 -15 6 -4 19
-23 29 -42 22 -43 124 -186 162 -227 15 -17 46 -50 68 -74 51 -56 181 -170
223 -194 18 -11 32 -23 32 -27 0 -4 5 -8 11 -8 6 0 25 -11 42 -24 18 -12 52
-33 77 -45 25 -12 52 -26 60 -31 57 -34 251 -106 325 -122 28 -5 68 -14 90
-19 106 -25 395 -33 520 -15 33 5 69 10 80 12 11 1 20 3 20 4 0 1 11 3 25 6
14 2 32 7 40 11 8 3 25 7 37 8 12 1 28 7 36 13 8 7 16 10 19 7 7 -7 115 35
223 86 50 24 93 43 97 43 4 1 17 9 28 18 11 10 22 18 25 18 5 0 29 16 140 94
38 27 224 212 250 249 11 16 30 41 43 55 12 15 25 35 28 45 3 9 9 17 12 17 4
0 16 20 27 45 11 25 23 45 28 45 4 0 7 6 7 14 0 8 6 21 13 28 8 7 20 31 27 53
7 22 18 49 24 60 17 27 47 110 51 138 2 12 11 54 20 92 9 39 19 90 22 115 8
72 8 300 1 358 -7 58 -37 208 -45 232 -4 8 -8 21 -10 28 -1 6 -5 18 -6 25 -2
6 -9 25 -15 40 -7 16 -12 31 -12 33 0 9 -88 186 -112 226 -55 90 -109 158
-199 247 -102 103 -134 131 -148 131 -5 0 -11 4 -13 9 -4 11 -114 81 -128 81
-5 0 -10 4 -10 9 0 5 -17 15 -37 22 -21 6 -40 15 -43 19 -7 10 -217 81 -251
85 -16 2 -33 6 -37 9 -15 9 -146 19 -252 19 -103 0 -162 -5 -238 -19 -20 -4
-44 -8 -52 -9 -8 -1 -22 -5 -30 -8 -8 -3 -42 -15 -75 -26 -88 -29 -188 -70
-194 -79 -3 -4 -24 -16 -46 -27 -22 -11 -44 -23 -50 -28 -5 -4 -38 -27 -72
-52 -35 -25 -63 -49 -63 -55 0 -5 -5 -10 -10 -10 -17 0 -36 -19 -121 -119 -43
-52 -79 -100 -79 -108 0 -7 -3 -13 -8 -13 -4 0 -19 -21 -32 -47 -14 -27 -28
-50 -31 -53 -3 -3 -12 -23 -19 -45 -7 -22 -21 -54 -31 -71 -10 -17 -16 -34
-12 -37 3 -4 -1 -26 -10 -49 -45 -120 -56 -379 -22 -523 26 -112 73 -235 122
-321 60 -104 75 -125 139 -191 23 -24 39 -43 36 -43 -2 0 24 -23 59 -50 35
-28 75 -59 89 -70 14 -11 35 -23 48 -26 12 -3 22 -9 22 -13 0 -5 18 -14 40
-21 22 -7 40 -16 40 -20 0 -11 135 -51 225 -66 17 -3 82 -7 146 -8 107 -3 193
10 329 48 30 8 185 88 188 97 2 5 7 7 11 5 4 -3 22 8 40 24 18 17 35 30 38 30
10 0 121 119 139 150 10 16 22 30 26 30 4 0 8 5 8 10 0 6 11 27 24 48 26 41
70 158 87 231 21 87 16 288 -8 351 -3 8 -7 20 -9 27 -6 30 -28 89 -36 100 -5
7 -6 18 -2 24 4 7 3 9 -3 6 -6 -4 -17 8 -24 26 -13 31 -20 42 -46 72 -7 7 -13
16 -13 19 0 7 -104 110 -139 139 -12 9 -25 17 -30 17 -5 0 -11 3 -13 8 -9 20
-150 78 -218 89 -108 17 -273 4 -332 -28 -13 -7 -23 -11 -23 -9 0 6 -80 -34
-93 -47 -7 -7 -18 -13 -23 -13 -15 0 -139 -130 -139 -146 0 -8 -4 -14 -9 -14
-5 0 -11 -8 -14 -17 -3 -10 -17 -49 -31 -88 -13 -38 -24 -85 -22 -103 1 -18
-1 -35 -6 -38 -5 -3 -6 -9 -3 -14 2 -4 7 -25 10 -46 4 -22 11 -55 18 -74 6
-19 12 -41 13 -48 1 -8 10 -22 18 -31 9 -10 16 -21 16 -25 0 -16 60 -83 97
-109 78 -54 200 -76 277 -50 12 4 27 8 34 9 8 1 22 10 31 18 10 9 23 16 29 16
7 0 12 3 12 8 0 4 14 22 30 41 17 18 30 39 30 45 1 6 3 27 6 48 6 44 -23 107
-58 126 -27 15 -62 12 -95 -6 -26 -15 -93 -16 -93 -2 0 6 -4 10 -10 10 -15 0
-43 31 -59 65 -22 47 -23 133 -2 180 30 66 124 146 192 161 11 2 29 6 42 9 72
18 226 -12 281 -54 45 -35 135 -133 142 -154 4 -12 11 -25 16 -28 5 -3 10 -12
11 -20 2 -8 6 -19 9 -25 7 -11 11 -25 27 -104 8 -41 7 -134 -2 -200 -6 -42
-30 -110 -38 -110 -4 0 -10 -13 -14 -30 -4 -17 -11 -30 -16 -30 -5 0 -9 -5 -9
-11 0 -6 -6 -16 -12 -23 -7 -7 -26 -30 -43 -50 -41 -51 -116 -106 -202 -149
-40 -20 -73 -35 -73 -32 0 2 -16 -3 -35 -10 -76 -32 -280 -36 -357 -6 -14 5
-28 7 -31 5 -3 -3 -27 6 -53 19 -27 13 -68 32 -91 43 -24 10 -43 22 -43 27 0
4 -7 7 -16 7 -8 0 -12 5 -9 10 3 5 -1 10 -9 10 -24 0 -160 142 -200 209 -43
70 -87 167 -80 174 3 3 -1 16 -9 29 -13 21 -21 50 -34 128 -14 86 -9 218 12
319 9 45 57 181 63 181 4 0 16 20 27 45 11 25 23 45 27 45 5 0 8 7 8 15 0 8 4
15 8 15 4 0 15 12 24 28 16 27 125 142 166 174 118 94 320 181 477 204 165 24
412 -4 530 -60 28 -13 66 -31 85 -40 107 -49 271 -180 342 -275 24 -31 45 -58
48 -61 36 -36 150 -252 150 -285 0 -7 5 -17 10 -20 6 -3 10 -16 10 -29 0 -12
3 -26 8 -30 4 -4 8 -12 8 -17 1 -5 2 -10 4 -11 1 -2 3 -12 5 -23 1 -11 5 -33
9 -50 20 -103 27 -301 12 -390 -4 -22 -9 -52 -11 -67 -2 -15 -9 -37 -15 -48
-6 -11 -9 -20 -6 -20 9 0 -16 -88 -39 -135 -13 -27 -35 -75 -50 -105 -34 -72
-65 -124 -76 -128 -5 -2 -9 -10 -9 -18 0 -8 -4 -14 -8 -14 -4 0 -16 -15 -27
-32 -33 -56 -198 -212 -286 -270 -105 -70 -206 -121 -221 -112 -6 4 -8 3 -5
-3 7 -11 -50 -40 -67 -35 -5 2 -12 -1 -15 -7 -4 -5 -18 -12 -31 -15 -14 -3
-57 -15 -96 -25 -39 -11 -95 -23 -125 -27 -66 -10 -370 -10 -419 0 -19 4 -46
8 -60 10 -14 2 -47 10 -73 19 -26 10 -54 17 -62 17 -27 0 -267 113 -311 147
-17 12 -36 23 -42 23 -6 0 -12 3 -14 8 -2 4 -25 25 -53 46 -47 37 -169 157
-207 204 -10 12 -30 41 -45 64 -15 24 -35 51 -43 61 -8 10 -15 21 -15 25 0 4
-9 21 -21 37 -26 38 -107 229 -110 260 0 6 -3 17 -7 25 -7 19 -13 46 -32 134
-36 162 -37 424 -4 587 6 30 12 64 14 75 5 34 105 318 114 324 5 3 12 16 16
30 10 30 55 104 66 108 5 2 9 8 9 13 0 22 93 141 170 217 47 47 137 123 184
157 16 11 34 25 40 30 61 52 380 192 476 209 14 3 25 5 25 6 0 2 36 11 60 14
11 2 31 6 45 9 42 11 91 17 185 23 50 4 91 7 92 8 3 2 49 0 183 -8z"/>
</g>
</svg>
